<svg width="512" height="512" viewBox="0 0 512 512" fill="none" xmlns="http://www.w3.org/2000/svg">
  <rect x="24" y="24" width="464" height="464" rx="112" fill="#111111"/>
  <rect x="24" y="24" width="464" height="464" rx="112" stroke="#111111" stroke-width="16"/>

  <g stroke="#FFFFFF" stroke-width="22" stroke-linecap="round" stroke-linejoin="round">
    <path d="M156 296C125.072 296 100 270.928 100 240C100 213.346 118.723 191.06 143.731 185.552C152.943 147.899 186.124 120 225.813 120C259.829 120 289.04 140.474 301.907 169.787C309.493 167.05 317.678 165.569 326.221 165.569C365.271 165.569 396.928 197.227 396.928 236.276C396.928 240.768 396.51 245.164 395.942 249.511C408.932 257.506 417.463 271.854 417.463 288.201C417.463 313.295 397.121 333.637 372.027 333.637H156Z"/>
    <path d="M256 334V388"/>
    <rect x="222" y="388" width="68" height="62" rx="18"/>
    <path d="M242 450V486"/>
    <path d="M270 450V486"/>
  </g>
</svg>
